<svg viewBox="0 0 114.87 63.47" xml:space="preserve" xmlns="http://www.w3.org/2000/svg">
    <path style="fill:#000;stroke-width:.26583" d="M-82.82 1085.07c-.04.02.02.13.00.02l.00-.03zM-187.04 1064.73c-.29.04-.57.13-.84.25-.23.11-.45.24-.66.39a2.78 2.78 0 0 0-.97 1.28 3.36 3.36 0 0 0-.19.80c-.04.33-.06.66-.07.99-.01.34.00.69.01 1.04.01.27.04.55.07.82.05.38.10.77.18 1.15.05.26.14.52.28.75.15.28.35.53.5.82.11.25.11.53.12.81-.00.24-.00.50-.14.71-.13.19-.35.31-.57.38-.43.16-.86.31-1.3.47a2.64 2.64 0 0 0-.74.42 3.03 3.03 0 0 0-.49.57c-.14.22-.26.47-.35.72-.09.28-.16.57-.21.86a11.82 11.82 0 0 0-.1.92 26.74 26.74 0 0 0-.06 1.48c-.02.86-.02 1.73-.04 2.59-.00.45-.01.91-.02 1.36l-.01.2c-.49.03-.99.05-1.49.08-.39.07-.78.14-1.17.25-.30.08-.59.21-.88.33-.25.15-.51.31-.74.49-.20.16-.42.33-.58.54a.77.77 0 0 0-.09.68c.08.24.24.45.39.66.19.25.41.47.65.68.29.26.60.51.92.75.67.51 1.36 1.01 2.05 1.51.30.21.60.44.91.64.24.14.48.29.75.37.29.07.60.08.90.07h1.57l.47 6.12.18 1.82c.04.22.01.46.09.68.06.19.30.26.48.19.23-.11.27-.39.36-.61l.27-.85.10 1.27c.06.24.15.48.26.71.17-.59.36-1.17.51-1.77l.08-.31.93 2.02c.04-.01-.01-.07.01-.09l.16-1.07c.01-.06.02-.14.08-.19.12.22.24.45.41.65.23.07.50.15.74.05.19-.07.32-.25.39-.44.08-.26.09-.54.13-.81.28-2.28.57-4.57.85-6.86.05-.23.10-.49.27-.68.17-.17.41-.25.63-.32.38-.12.77-.24 1.15-.36.28-.15.57-.32.82-.54.30-.26.58-.55.86-.83.29-.3.58-.60.84-.92.17-.21.35-.42.5-.66a4.11 4.11 0 0 0 .37-.72c.11-.29.12-.61.03-.91-.07-.26-.18-.52-.29-.76-.12-.23-.25-.47-.44-.67-.14-.17-.36-.26-.57-.30-.40-.08-.82-.07-1.22-.04-.40.03-.81.08-1.22.12-.65.07-1.31.15-1.96.23-.02-.05.07-.03.07-.08.18-.20.36-.40.51-.63.17-.35.30-.72.44-1.09.19-.62.40-1.23.56-1.86.11-.4.18-.81.26-1.21.04-.38.08-.77.07-1.16a6.88 6.88 0 0 0-.10-.94c-.05-.31-.10-.64-.19-.95a1.01 1.01 0 0 0-.38-.62c-.21-.15-.46-.22-.70-.31-.65-.23-1.33-.42-1.99-.63-.24-.07-.48-.24-.55-.49-.08-.27-.08-.57-.06-.86.01-.25.06-.51.15-.75s.21-.47.32-.70c.18-.35.35-.72.53-1.08.13-.31.22-.65.28-.98.08-.46.13-.94.15-1.42.03-.54.05-1.08.06-1.62-.00-.26.01-.54-.09-.79-.07-.21-.25-.37-.41-.53a6.41 6.41 0 0 0-.69-.59c-.29-.19-.6-.36-.93-.48a3.65 3.65 0 0 0-1.09-.22h-.16zm-2.94 18.21c.21.33.45.65.67.98l.50.73c-.48-.04-.97-.08-1.45-.14-.12-.01-.25-.02-.37-.06a.92.92 0 0 1 .12-.76c.13-.23.26-.47.40-.69.02-.04.07-.07.12-.05zm2.43 16.07.00.02c-.01 0-.02-.03-.00-.02zM-112.73 1059.37c-1.14.66-1.98 1.88-2.05 3.22-.05 1.2.39 2.34.62 3.50.07.27.06.55.12.83.03.25.28.35.45.49.66.51 1.34 1.00 2.01 1.49.20.22.07.59-.17.72-2.26 1.55-4.55 3.07-6.62 4.87-.94.89-1.75 1.94-2.28 3.14l-.67 1.34c-.21.20-.04.63.25.62.33-.10.72-.21 1.04 0 .84.66 1.37 1.62 1.90 2.53.83 1.67 1.20 3.52 1.46 5.36.08.71.07 1.43.04 2.14.01.28.44.46.60.20.24-.37.16-.84.17-1.27-.00-1.10-.14-2.2-.14-3.30.07-.63.13-1.30-.10-1.91l-1.22-4.48c-.02-.27.08-.54.25-.74.10-.24.03-.53-.12-.73-.24-.14-.53-.17-.73-.39-.08-.48.25-.91.62-1.18 1.01-.78 2.20-1.27 3.39-1.70a6.51 6.51 0 0 0 1.53-1.05c.13.28.06.59-.01.88-.04.33.03.67.17.98.21.17.55.05.67-.18.22-.32.79-.30.99.04.19.63.02 1.30-.05 1.94.04.21-.11.50-.36.47-.27-.08-.34-.40-.46-.62-.15-.20-.17-.54-.46-.61-.28-.04-.33.38-.11.50.22.17.47.33.62.58.33.48.51 1.04.75 1.58.09.24.06.51.14.76.10.17.32.03.29-.13.12-.26.54-.10.43.17-.06.48-.20.95-.30 1.42l-.20.90c.01.26.41.41.58.19.34-.34.61-.76.77-1.22.15-.24.59-.06.53.21-.00.77-.00 1.57-.27 2.31-.26.38-.58.73-.74 1.18-.02.7.47 1.37 1.13 1.57.29.12.35.54.16.77-.28.47-.58.95-.85 1.44-.13.49.12.99.45 1.35.19.22.44.39.69.57-.24.24-.56.39-.75.69-.21.18-.12.52.02.72.24.37.50.73.77 1.09.00.28-.16.54-.1.83.00 1.66-.16 3.32-.26 4.98l-.10 1.62.76-1.99c.31 1.10.29 2.27.45 3.40l.29 2.86c.16-.80.23-1.62.45-2.41.21.54.11 1.14.11 1.71-.06 2.31-.19 4.62-.24 6.93-.04.24-.03.6.26.67.26.13.35.46.35.74.13 1.98.27 3.97.41 5.95.15.45.67.67 1.12.66.26 0 .54.04.78-.08.30-.46.22-1.04.26-1.57.20-5.42.39-10.85.65-16.28.22-3.31.64-6.60 1.05-9.90.06-.11-.04-.53.16-.42.19.23.22.54.37.80l.82 1.99c.32.42.94.58 1.44.39.65-.13 1.31.08 1.96.12.40-.08.58-.50.87-.74 1.23-1.09 2.64-1.97 4.08-2.76 2.31-1.23 4.73-2.23 7.12-3.30l1.06-.46c.33-.01.1-.60-.16-.38-.61.19-1.24.34-1.86.52-2.29.63-4.60 1.23-6.80 2.16-1.45.62-2.86 1.37-4.14 2.30-.37.29-.71.63-1.06.96-.24.15-.58 0-.69-.25-1.03-1.82-2.07-3.65-3.08-5.49-.60-1.49-1.01-3.05-1.48-4.59-1.03-3.53-2.05-7.06-3.07-10.59-.08-.21-.29-.56-.03-.72.27-.11.54.08.78.17.89.37 1.78.77 2.69 1.08.62.14 1.24-.06 1.84-.20.39-.09.71-.37.92-.72.51-.75 1.12-1.43 1.69-2.13 1.18-1.40 2.38-2.78 3.56-4.19.16-.25.21-.56.17-.85-.16-.31-.66-.35-.88-.08a635.69 635.69 0 0 0-6.30 6.02c-.34.22-.78.12-1.14-.01a23.48 23.48 0 0 1-3.46-1.37c-.83-.18-1.70-.07-2.55-.1-.25 0-.50.01-.74.06-.29-.01-.47-.37-.34-.62.05-.48.19-.96.45-1.36.30-.58.17-1.27-.04-1.86-.59-1.60-1.48-3.07-2.37-4.53-.20-.24-.50-.4-.82-.41l-.25.12zm.48 1.86c.34.07.62.30.88.53-.20.17-.50.19-.74.10-.34-.08-.72.20-.74.55-.07.27-.55.19-.54-.08a1.78 1.78 0 0 1 .55-1.02c.19-.03.39-.10.59-.08zM-148.24 1058.31c-.69 0-1.65.74-1.94 1.5-.42 1.12-1.04 4.40-1.04 5.56 0 .86.18 1.32.79 2.02 1.17 1.33 1.06 2.06-.43 2.83-1.53.78-1.77 1.19-2.32 3.85-.6 2.88-.4 4.78.77 7.36.75 1.64.92 2.34.92 3.73 0 1.34.08 1.70.39 1.70.50 0 .50.76.01 3.09-.20.99-.51 2.87-.68 4.18-.16 1.31-.48 3.06-.71 3.89-.06.24-.12.44-.18.62.03.24.07.49.12.74.05.32.12.64.18.96.33 2.11 1.5-.38 1.33 3.87-.10 2.73-.06 3.09.33 3.19.72.19.86 3.27.22 4.90-.27.70-.49 1.54-.48 1.86.01.54.03.55.22.06.3-.76.54 1.02.55 3.96.00 1.73.11 2.55.41 2.97.44.63.82.72 1.43.33.39-.25.43-.55 1.05-7.68.14-1.67.37-3.75.5-4.63.12-.87.43-3.31.67-5.42.24-2.11.61-4.69.82-5.74.21-1.05.38-2.74.38-3.76 0-2.03.49-5.84.76-5.84.09 0 .12-1.47.07-3.26-.08-3.06-.04-3.37.62-4.96.99-2.36 1.42-4.01 1.60-6.17.13-1.66.08-1.96-.46-2.77-.65-.96-1.17-1.19-3.21-1.47-1.10-.15-1.32-.28-1.68-1.05-.40-.84-.39-.91.26-1.77 1.30-1.71 1.90-5.55 1.1-7.10-.41-.81-1.60-1.58-2.43-1.58zm-.33 2.14c.03 0-.24 1.16.10 1.20.33.03.24-1.16.28-1.16.67.07.53.14.53 1.25 0 .99-.08 1.20-.53 1.25-1.03.13-1.61-.81-1.18-1.94.17-.46.35-.62.78-.60z" transform="translate(197.68 -1058.31)"/>
</svg>
