<svg viewBox="0 0 128.954 128.456" xml:space="preserve" xmlns="http://www.w3.org/2000/svg">
    <path style="fill:#000;stroke-width:.26" d="M-147.72 479.713a64.478 64.478 0 0 0-7.756.996c-3.026 2.897-5.197 7.96-8.627 18.951-.438 1.404-.405 1.426-1.861-1.248l-5.689-10.445c-.316-.58-.542-.976-.846-1.53-1.006.499-2 1.024-2.978 1.574 3.255 5.671 7.62 12.815 9.843 15.894 1.045 1.448 1.294 2.033 1.573 3.704 1.187 7.1 3.209 10.403 9.927 16.216 4.252 3.678 13.467 12.261 16.93 15.77l2.102 2.128 4.116-4.189c13.649-13.887 30.056-13.732 39.227.37 1.715 2.636 1.72 2.683.43 4.605-7.871 11.721-26.706 16.175-40.67 9.618-1.211-.57-1.457-.61-1.643-.278-.12.214-.447.672-.726 1.017l-.508.628-1.024-.763c-1.408-1.049-5.039-4.741-9.757-9.923-8.002-8.788-12.977-13.06-18.316-15.732-11.68-5.844-29.537.64-33.982 12.338-.639 1.68-.703 1.437 1.08 4.095 8.271 12.342 26.413 17.604 41.769 12.116 3.033-1.085 2.972-1.08 3.561-.27l.46.632-2.176 1.526c-6.013 4.214-9.097 8.84-11.587 17.388-.417 1.43-1.494 4.168-2.394 6.085-.9 1.916-2.677 5.866-3.95 8.776a446.843 446.843 0 0 1-4.61 10.126 64.47 64.47 0 0 0 2.84 1.501c1.437-3.283 2.842-6.526 4.057-9.378 1.52-3.565 2.975-6.947 3.234-7.516l.472-1.033.74 2.753a97.347 97.347 0 0 0 1.757 5.664c.56 1.6 1.509 4.637 2.11 6.747 1.1 3.87 2.338 6.56 4.155 8.554 2.174.443 4.37.773 6.577.989-3.263-1.408-5.825-3.776-7-6.86-1.312-3.437-1.31-3.498.068-1.97 6.628 7.354 18.098 8.234 26.902 2.065 2.356-1.65 2.35-1.653 1.408.682-1.127 2.791-2.642 4.447-5.399 5.688a64.478 64.478 0 0 0 5.994-1.241c1.25-1.504 2.021-3.307 3.818-8.473a3500.8 3500.8 0 0 1 2.897-8.298c.563-1.6 1.097-3.446 1.188-4.1.09-.656.223-1.37.295-1.588.07-.218 1.175 2.223 2.453 5.424 1.13 2.83 2.92 7.148 4.571 11.07.967-.53 1.92-1.085 2.858-1.664-1.638-3.652-3.603-8.143-4.612-10.57-1.113-2.676-2.624-6.129-3.358-7.672-.734-1.543-1.81-4.175-2.393-5.849-2.497-7.18-5.656-11.983-12.488-18.984-1.03-1.055-1.761-1.918-1.626-1.918.134 0 1.751.594 3.593 1.319 15.38 6.057 32.899 1.213 42.084-11.637 2.345-3.28 1.15-6.415-4.44-11.644-11.465-10.725-26.009-9.555-38.961 3.133l-2.915 2.855-1.397-1.429c-1.784-1.824-10.11-9.564-14.793-13.75-7.91-7.071-10.111-10.946-10.111-17.795 0-18.72 22.517-26.965 33.562-12.289 7.254 9.638 5.13 21.736-5.003 28.502l-1.828 1.22-1.478-1.242c-10.696-8.989-12.213-10.7-12.635-14.26-.927-7.831 9.797-10.821 11.972-3.337 1.604 5.518-5.242 9.405-8.464 4.805-.664-.948-.5-1.186.303-.436 3.228 3.021 7.683 1.129 7.42-3.151-.425-6.887-10.517-5.637-10.528 1.303-.005 3.234 4.99 8.872 12.567 14.185 3.315 2.324 10.582-7.358 10.915-14.544.899-19.383-25.345-26.767-33.72-9.487-4.75 9.8-2.444 17.109 8.439 26.741a699.77 699.77 0 0 1 9.542 8.66l5.23 4.846 3.107-2.918c16.512-15.51 32.985-14.842 50.257 2.04.966.943 1.695 1.87 2.2 2.787a64.477 64.477 0 0 0-.793-5.914c-17.152-16.266-34.913-16.925-52.393-1.908l-2.381 2.046-2.18-2.084c-1.198-1.147-4.265-3.885-6.815-6.084-10.991-9.48-13.085-12.363-13.442-18.512-.826-14.243 15.574-22.123 25.462-12.235 6.495 6.496 5.867 17.989-1.264 23.11-1.528 1.097-1.24 1.203-4.116-1.511l-2.48-2.341 1.196-.53c4.157-1.839 5.925-6.866 3.863-10.99-3.832-7.668-14.793-5.736-16.348 2.881-.933 5.171 2.226 9.865 12.303 18.283 4.428 3.7 3.874 3.557 6.646 1.703 6.46-4.321 10.174-9.63 11.583-16.56.378-1.861.697-2.535 2.635-5.565 3.098-4.846 5.797-9.409 7.853-13.195a64.476 64.476 0 0 0-2.941-1.69c-1.71 3.175-3.632 6.632-4.774 8.543-.696 1.164-1.567 2.711-1.934 3.438-.564 1.113-.697 1.238-.849.793-.099-.29-.775-2.015-1.503-3.834a772.375 772.375 0 0 1-2.503-6.35c-1.676-4.323-2.992-6.892-4.678-8.697a64.477 64.477 0 0 0-6.357-1.124c2.773 1.054 5.079 2.847 6.325 5.438 1.259 2.617 1.184 2.739-.728 1.186-5.815-4.724-14.702-5.584-21.762-2.108-1.164.574-2.905 1.7-3.869 2.505l-1.752 1.462.37-1.076c1.348-3.913 5.003-6.535 9.272-7.755zm-30.423 9.996c-.035 0-.068.005-.103.007-.377.232-.753.468-1.126.707-.02.038-.044.073-.063.114-.262.575-.04 1.03 2.192 4.494 6.86 10.646 8.091 12.363 11.43 15.932 1.897 2.028 2.06 1.875 1.14-1.073-.53-1.702-1.292-3.127-3.42-6.402-2.856-4.396-7.4-11.458-8.029-12.478-.521-.846-1.319-1.297-2.021-1.3zm70.22.618c-1.23 1.33-3.106 4.114-6.061 8.821-5.063 8.064-6.064 9.973-6.52 12.43-.445 2.398 4.657-3.896 9.933-12.253 2.998-4.749 4.203-6.658 4.669-7.6a64.463 64.463 0 0 0-2.02-1.398zm-34.003 2.779c-.34-.01-.686-.006-1.038.009-9.951.441-14.883 11.398-9.28 20.62 2.259 3.72 12.601 14.006 16.833 16.742l.718.464 2.853-2.233c17.93-14.028 32.12-13.835 51.143 1.147a64.477 64.477 0 0 0-1.335-4.984c-4.037-2.556-9.058-5.18-13.733-7.098-2.227-.913-2.637-1.161-2.117-1.28.355-.08 3.027-.735 5.937-1.455 1.586-.393 3.487-.839 5.295-1.252a64.474 64.474 0 0 0-1.51-2.678l-3.03.762c-13.21 3.332-22.364 4.807-19.342 3.116.716-.402 4.102-3.115 9.79-7.847 5.536-4.605 5.939-5.129 4.81-6.258-.659-.659-.967-.525-3.183 1.38-2.082 1.79-3.95 3.318-11.748 9.609-5.295 4.272-5.13 4.163-9.839 6.496-4.643 2.3-6.025 3.19-10.453 6.727l-3.227 2.578-1.139-.999c-12.207-10.7-13.944-12.519-15.568-16.307-2.96-6.906 1.745-14.662 8.894-14.662 8.277 0 12.192 10.494 6.02 16.135-.812.742-1.432 1.375-1.377 1.407.054.032.61.454 1.236.938l1.138.88 1.111-1.257c7.475-8.454 2.68-20.415-7.86-20.7zm-43.791 2.177a64.475 64.475 0 0 0-1.927 1.686c1.051 1.289 3.463 3.463 8.387 7.844 10.755 9.568 11.665 10.35 12.527 10.768.867.42 2.579.354 2.865-.11.096-.156-.368-.767-1.031-1.36l-7.122-6.365c-7.497-6.698-11.909-10.71-13.577-12.346-.045-.044-.08-.075-.122-.117zm85.269.842c-.737.654-1.635 1.482-2.78 2.554-2.679 2.51-6.535 6.043-8.568 7.85-7.447 6.617-9.834 9.159-8.79 9.36 1.83.353 1.945.283 7.474-4.572 7.974-7 12.37-11.052 14.484-13.494a64.48 64.48 0 0 0-1.82-1.698zm-88.47 4.441c-.486-.02-.718.374-.864 1.139-.2 1.04.545 1.704 10.928 9.747 3.795 2.94 4.852 3.823 4.723 3.95-.83.826-8.4-.547-21.861-3.966l-2.769-.703a64.48 64.48 0 0 0-1.542 2.718c4.17.962 9.944 2.334 12.314 2.945l1.059.272-1.323.622c-.728.342-2.78 1.233-4.56 1.981-3.463 1.456-8.752 4.51-12.818 7.358a64.479 64.479 0 0 0-1.223 5.19c22.953-19.998 38.336-18.21 62.855 6.386 9.77 9.8 8.746 9.223 11.18 6.308l1.884-2.254.71.503c6.13 4.345 17.465 1.243 23.066-6.312 1.626-2.194 1.23-2.11 3.394-.71 4.785 3.096 5.473 4.221 3.66 5.983-7.694 7.479-19.128 9.03-30.04 4.078-2.333-1.06-2.051-1.042-2.528-.158-.215.4-.808 1.204-1.316 1.786l-.924 1.058-8.546-8.612c-15.319-15.438-21.904-19.556-32.413-20.272-9.223-.628-23.218 6.154-31.488 14.942a64.478 64.478 0 0 0-.707 9.49 64.47 64.47 0 0 0 .139 3.697c4.38 4.15 11.349 7.991 20.404 11.221 2.148.766 3.863 1.434 3.812 1.485-.27.27-9.172-1.845-16.327-3.878-3.895-1.107-5.958-1.611-7.043-1.516.164.995.351 1.985.562 2.97 4.275 2.01 15.681 4.558 22.963 4.819 6.616.237 4.447.831-7.077 1.938-6.755.649-10.893 1.06-13.46 1.435a64.472 64.472 0 0 0 1.347 3.364c1.033-.12 2.191-.26 3.657-.444 11.867-1.49 17.462-2.518 22.56-4.145 1.354-.432 2.604-.731 2.778-.666.725.274-5.613 2.862-14.92 6.093-5.07 1.76-8.855 3.08-11.684 4.112a64.472 64.472 0 0 0 1.73 3.03c.729-.276 1.438-.543 2.303-.873 13.076-4.986 24.357-9.771 27.781-11.786.364-.214.917-.39 1.23-.392 3.015-.021 5.827-1.174 7.965-3.266 1.736-1.699 2.101-2.461 1.058-2.207-12.14 2.953-20.799 1.535-34.987-5.73-14.627-7.492-16.768-11.117-10.34-17.509 19.905-19.792 36.012-18.063 58.42 6.268 8.976 9.747 9.888 10.495 11.028 9.046.629-.799.565-.81 3.904.66 12.692 5.592 29.486 1.6 37.357-8.88 4.847-6.453-11.449-16.649-22.773-14.249-5.023 1.065-19.26 11.754-19.26 14.461 0 .136-3.066-2.837-6.813-6.606-10.064-10.124-15.178-14.243-22.438-18.074-3.876-2.046-5.42-3.147-15.344-10.942a572.346 572.346 0 0 1-5.891-4.688c-1.823-1.482-2.868-2.191-3.492-2.217zm46.502 1.906a3.05 3.05 0 0 1 1.043.245c1.717.718 2.066 2.718.696 3.989-.834.772-1.528.804-2.646.123-2.397-1.462-1.363-4.456.907-4.357zm.083.748c-.18.01-.367.061-.556.162-1.245.666-1.264 2.096-.036 2.763.918.498 1.099.495 1.68-.032 1.128-1.02.176-2.963-1.088-2.893zm-32.111 24.122a22.573 22.573 0 0 1 12.887 3.835c4.023 2.699 7.96 6.596 15.614 15.457 3.36 3.891 4.438 5.006 12.283 12.703 16.414 16.107 14.444 38.064-3.833 42.739-22.004 5.627-33.96-27.042-15.219-41.585.971-.753 1.986-1.617 2.255-1.92l.49-.551.829 1.055c.456.58 3.213 3.5 6.128 6.489 8.454 8.67 10.328 12.74 8.323 18.088-2.975 7.935-14.303 5.974-14.27-2.47.013-3.125 2.972-6.34 5.86-6.363 1.839-.015 2.04.673.248.845-6.522.627-7.286 9.35-1.041 11.884 4.399 1.785 9.724-2.942 9.118-8.095-.492-4.187-1.966-6.374-9.404-13.96l-5.768-5.882-1.077.713c-10.128 6.702-13.182 21.302-6.67 31.88 13.47 21.874 43.163 1.821 31.873-21.525-1.929-3.988-3.64-6.06-10.788-13.064-3.342-3.274-7.81-7.977-9.931-10.45-12.921-15.075-19.246-19.262-28.456-18.84-9.93.455-21.266 9.446-17.796 14.114 8.623 11.602 28.178 15.582 40.728 8.29.646-.375.68-.344 2.739 2.574 1.077 1.526 3.753 4.567 6.58 7.477 9.31 9.584 11.038 12.33 11.418 18.134.836 12.769-14.19 18.473-19.626 7.45-3.08-6.244-.02-12.852 7.006-15.131l1.446-.47 1.426 1.562c2.89 3.166 3.775 4.96 3.797 7.697.047 5.687-7.22 7.584-8.507 2.22-.712-2.968 2.856-5.747 4.837-3.767 1.798 1.798.19 4.882-1.95 3.737-.604-.323-.684-1.049-.114-1.049.218 0 .396.106.396.236 0 .561.937.572 1.387.016 1.568-1.936-.852-3.576-3.03-2.054-3.168 2.214 1.103 6.499 4.43 4.443 4.112-2.541.517-12.49-4.127-11.418-7.514 1.734-9.983 10.506-4.518 16.052 7.959 8.076 19.818-1.92 15.796-13.315-1.24-3.514-2.953-5.76-9.982-13.086-2.822-2.941-5.856-6.302-6.742-7.47-2.327-3.064-2.09-2.958-4.514-2.029-14.944 5.731-31.154 1.864-39.716-9.474-1.86-2.464-1.862-2.31.096-5.282a23.174 23.174 0 0 1 19.089-10.44zm62.489 3.058c5.505.106 11.953 3.072 15.808 7.59 2.139 2.507 2.139 2.508-.62 5.37-3.742 3.882-8.191 6.503-13.27 7.819-3.33.862-9.337 1.077-12.732.455-3.557-.651-9.525-2.865-9.525-3.532 0-.425.278-.355 3.123.787 11.8 4.734 24.006 2.247 32.05-6.532 1.944-2.122 1.938-1.99.182-4.018-4.31-4.976-9.22-7.21-15.987-7.275-2.537-.024-3.275-.097-2.646-.263 1.126-.297 2.347-.425 3.617-.4zm-60.864.024c1.087.022 2.126.159 3.087.422.53.146-.306.22-2.514.225-6.998.014-13.092 2.882-16.713 7.865-1.237 1.703-.151 3.404 4.328 6.779 8.697 6.553 18.099 7.274 30.73 2.356 1.256-.489 1.585-.535 1.763-.245.433.699-6.652 3.213-10.847 3.85-10.706 1.622-21.57-2.374-27.162-9.993-1.019-1.387-1.045-1.246.648-3.468 3.573-4.688 10.812-7.911 16.68-7.791zm58.026 1.858c2.892-.025 5.973.338 6.653.975 1.31 1.228-6.394 7.426-10.553 8.49-3.16.808-6.673.652-9.566-.425-2.27-.846 4.345-7.113 9.024-8.55 1.04-.319 2.707-.474 4.442-.49zm-55.6.078c4.982.019 6.461.636 11.018 4.6 3.959 3.443 4.097 3.86 1.549 4.677-6.183 1.982-13.644-.6-17.826-6.168-2.045-2.722-1.352-3.133 5.258-3.109zm-9.481 2.599c.515.018.935.279 1.309.762 6.32 8.184 15.17 11.035 22.97 7.399l1.437-.67 1.606 1.697c.883.933 2.906 3.303 4.495 5.267 4.281 5.289 5.664 6.77 10.507 11.25 15.747 14.569 15.26 33.329-.975 37.558-16.858 4.39-26.89-20.16-13.454-32.924l2.021-1.92 2.35 2.339c2.786 2.773 2.76 2.635.709 3.805-3.247 1.85-5.525 4.924-5.934 8.01-.092.694-.264 1.321-.382 1.394-.516.32.523-4.095 1.34-5.692.676-1.323 2.495-3.317 3.92-4.297.79-.544 1.08-.876.831-.951-.21-.064-.824-.537-1.363-1.052l-.98-.936-1.27 1.392c-9.893 10.853-2.475 29.593 10.813 27.315 7.667-1.315 12.901-10.171 10.936-18.504-1.227-5.205-4.16-9.513-11.973-17.583-3.166-3.27-5.76-6.267-7.968-9.209-1.8-2.399-3.358-4.454-3.46-4.568-.103-.113-1.012.198-2.019.691-11.048 5.414-23.6 3.759-31.277-4.124l-1.137-1.167 1.666-1.65c2.556-2.534 4.148-3.672 5.282-3.632zm100.757 8.74c-1.789 3.803-7.853 7.707-18.655 12.28-10.437 4.417-17.745 5.495-25.526 3.767-5.034-1.118-4.998-1.135-2.733 1.311 1.98 2.14 5.009 3.437 8.018 3.437.3 0 1.183.425 1.965.944 1.305.866 8.215 3.936 13.652 6.065 8.003 3.133 10.277 4.012 14.193 5.49a64.48 64.48 0 0 0 1.666-3.015c-1.674-.593-3.09-1.089-4.614-1.634a1391.036 1391.036 0 0 0-10.478-3.698c-9.094-3.157-14.824-6.079-6.893-3.515 5.78 1.869 16.897 3.643 24.192 4.201a64.476 64.476 0 0 0 1.33-3.371l-3.653-.415a620.46 620.46 0 0 0-7.725-.777c-5.09-.486-11.911-1.434-12.17-1.692-.056-.056 1.956-.163 4.472-.236 5.155-.15 7.66-.576 17.634-3.004 1.464-.356 2.594-.644 3.566-.909.284-1.227.532-2.462.744-3.704-.916.191-2.105.499-3.76.96-9.313 2.603-16.631 4.364-18.008 4.334-.2-.004 1.84-.816 4.532-1.804 8.601-3.156 13.884-5.839 18.004-9.23.16-1.812.244-3.63.25-5.448a75.218 75.218 0 0 0-.003-.336zm-40.699 21.546c-.469-.002-.845.109-.995.35-.116.189.937 1.394 2.715 3.11 1.598 1.54 5.992 5.785 9.766 9.433 8.728 8.436 10.358 9.962 11.056 10.358.08.045.157.08.233.11.495-.517.981-1.043 1.458-1.578a2.188 2.188 0 0 0-.402-.734c-1.098-1.341-19.384-18.65-21.33-20.191-.68-.538-1.72-.854-2.501-.858zm-45.765.049c-2.032.017-4.131 1.795-16.262 13.777-8.072 7.973-8.406 8.393-7.45 9.35.964.964 1.373.614 14.772-12.621 9.906-9.786 10.53-10.52 8.94-10.506zm44.053 2.803c-.129-.004-.105.204-.024.546.973 4.078 2.239 5.65 14.496 18.01 2.706 2.73 4.536 4.567 5.884 5.885a64.483 64.483 0 0 0 1.896-1.696c-1.706-1.877-4.507-4.74-8.955-9.28a1231.429 1231.429 0 0 1-9.235-9.527c-2.758-2.893-3.779-3.93-4.062-3.938zm-42.632.27c-.204-.028-.586.252-1.181.955-1.87 2.208-6.646 7.184-18.415 19.19-1.413 1.442-2.396 2.482-3.098 3.298.61.545 1.229 1.078 1.858 1.599 4.835-4.666 16.247-16.255 17.84-18.224 2.186-2.703 3.725-6.722 2.996-6.819z" transform="translate(208.067 -479.713)"/>
    <g style="fill:#ff7f2a">
        <text xml:space="preserve" x="-158.35" y="592.614" style="font-size:126.912px;font-family:sans-serif;fill:transparent" transform="translate(208.067 -479.713)">i</text>
    </g>
</svg>
