<svg viewBox="0 0 48.3 70.6" xml:space="preserve" xmlns="http://www.w3.org/2000/svg">
    <path style="opacity:1;fill:#000;;stroke:none;stroke-width:3;" d="m1495.9 168.43-1.9 8.0-.2 8.6c-9.42.48-16.8 3.8-21.9 10.2 8.5 6.86 12.2 8.4 21.8 9.1l-.3 26.1 2.5 8.3 1.4-8.0.3-15.6.0-11.1c11.5.22 16.1-1.3 22.33-8.9-6.9-7.7-12.9-9.5-22.5-9.8l-.0-10.5zm1.58 20.8c7.46.63 11.3 1.8 16.9 6.6-3.6 3.7-7.7 4.9-12.8 5.1 0 0 .3-1.9-.7-3-1.1-1.0-3.3-1.2-3.3-1.2zm-3.7.1-.23 7.2s-2.0.2-3.0 1.2c-.99.9-1.1 2.8-1.1 2.8-5.3-.4-7.6-1.9-11.49-5.59 5.2-3.76 9.6-5.0 15.9-5.7z" transform="translate(-1471.72 -168.43)"/>
</svg>
