<svg viewBox="0 0 63.16 46.60" xml:space="preserve" xmlns="http://www.w3.org/2000/svg">
    <path style="fill:#000" d="M1405.39 287c-9.42.48-16.85 3.88-21.97 10.26 8.56 6.86 12.2 8.44 21.84 9.14l4.16.01c11.59.22 16.09-1.81 22.32-9.35-6.95-7.76-12.97-9.50-22.51-9.86zm3.81 4.04c7.46.63 11.32 1.82 16.97 6.61-3.67 3.74-7.71 4.98-12.86 5.10 0 0 .39-1.96-.72-2.99-1.11-1.03-3.30-1.21-3.30-1.21l-4.03-.09s-2.03.29-3.02 1.22c-.99.92-.65 2.85-.65 2.85-5.37-.49-8.22-1.98-12.01-5.59 5.23-3.76 9.63-5.08 15.92-5.72zM1405.39 333.61c-9.42-.48-16.85-3.88-21.97-10.26 8.56-6.86 12.2-8.44 21.84-9.14l4.16-.01c11.59-.22 16.09 1.81 22.32 9.35-6.95 7.76-12.97 9.50-22.51 9.86zm3.81-4.04c7.46-.63 11.32-1.82 16.97-6.61-3.67-3.74-7.71-4.98-12.86-5.10 0 0 .39 1.96-.72 2.99-1.11 1.03-3.30 1.21-3.30 1.21l-4.03.09s-2.03-.29-3.02-1.22c-.99-.92-.65-2.85-.65-2.85-5.37.49-8.22 1.98-12.01 5.59 5.23 3.76 9.63 5.08 15.92 5.72z" transform="translate(-1376.51 -287)"/>
    <path style="fill:none;stroke:#000;stroke-width:3" d="M1376.51 310.14h63.16" transform="translate(-1376.51 -287)"/>
</svg>
