<svg viewBox="0 0 133.338 129.311" xml:space="preserve" xmlns="http://www.w3.org/2000/svg">
    <path style="fill:#d40000;fill-opacity:1;fill-rule:nonzero;stroke:none;stroke-width:.89;stroke-opacity:1;paint-order:stroke fill markers" d="m-185.914 642.852 2.895 2.37 9.399-.083-13.29 15.758 1.521 2.716 14.762-.183 2.204-3.652-7.435-8.454 7.336-8.323zm8.28 10.544 6.238 7.336-12.422.066 6.053-7.336z" transform="translate(240.157 -594.567)"/>
    <path style="fill:#000;stroke-width:.275" d="M-710.706 407.23c-12.442-1.6-21.93-7.205-28.788-17.005-2.015-2.879-3.81-5.307-7.665-10.366-19.555-25.666-24.277-61.482-10.514-79.733 15.002-19.894 68.904-33.891 89.965-23.363 14.4 7.199 34.793 36.43 39.016 55.925 3.859 17.81 1.73 34.193-5.751 44.256-14.494 19.497-50.126 33.647-76.263 30.285zm14.317-3.012c18.467-1.624 35.436-8.373 49.835-19.822 23.44-18.64 21.943-53.932-3.68-86.723-13.077-16.736-20.885-21.38-35.83-21.314-23.406.104-54.095 10.572-66.093 22.545-18.037 17.997-11.95 59.003 12.65 85.222 7.398 7.885 16.44 10.242 36.004 9.387 36.412-1.593 58.378-15.728 60.83-39.146 2.277-21.747-2.181-35.612-16.626-51.705-11.985-13.354-18.837-15.48-41.358-12.833-42.296 4.971-60.082 23.981-52.161 55.751 3.18 12.756 16.356 30.818 25.4 34.817 11.707 5.178 42.754 2.081 56.832-5.668 20.299-11.174 25.634-33.265 12.748-52.784-12.625-19.123-23.625-23.66-47.087-19.42-33.376 6.032-50.559 24.213-40.023 42.35 11.01 18.952 22.006 27.968 34.104 27.96 34.9-.022 61.15-23.656 48.007-43.224-14.63-21.783-37.11-24.563-65.733-8.129-11.866 6.813-13.424 10.694-7.741 19.28 11.054 16.7 17.709 21.174 31.524 21.193 14.102.02 26.007-6.6 35.14-19.538 2.586-3.663 2.399-4.382-2.632-10.097-15.514-17.62-30.78-18.265-52.056-2.197-6.24 4.711-6.321 4.88-4.005 8.252 13.757 20.037 30.827 21.666 48.087 4.59 4.632-4.582 4.576-4.872-1.957-10.133-12.877-10.372-18.1-10.546-31.387-1.048-7.257 5.186-7.027 4.659-3.6 8.257 9.745 10.232 22.08 10.294 32.213.16 2.15-2.149 2.136-2.08.59-3.143-1.555-1.07-1.482-1.09-2.724.7-6.17 8.884-19.746 9.651-25.24 1.425-1.873-2.805-1.486-3.864 2.49-6.812 9.119-6.76 13.02-6.579 22.342 1.04 1.277 1.045 3.058 2.365 3.957 2.935 3.579 2.267 3.578 2.239.237 5.53-12.24 12.064-25.038 11.44-37.67-1.836-3.81-4.004-3.782-4.05 6.659-11.012 14.06-9.376 20.469-8.984 34.611 2.116 8.36 6.561 8.413 7.456.836 14.169-18.256 16.172-32.297 16.582-46.767 1.363-10.098-10.62-9.824-12.794 2.652-21.095 20.83-13.859 34.114-13.446 49.856 1.549 7.88 7.505 9.667 11.085 7.396 14.815-15.762 25.897-48.487 31.284-65.698 10.816-15.797-18.786-15.193-25.567 3.13-35.09 29.187-15.169 51.28-12.639 66.452 7.611 8.511 11.359 7.733 23.284-2.224 34.09-13.59 14.75-48.927 21.984-62.672 12.83-6.077-4.049-18.436-19.558-21.803-27.36-9.009-20.88 6.973-38.471 41.21-45.36 25.837-5.2 38.66-.262 51.794 19.942 16.806 25.852 5.42 55-24.527 62.788-23.66 6.153-44.465 5.324-54.275-2.164-15.82-12.074-25.531-35.517-23.158-55.906 2.511-21.583 24.93-35.38 62.482-38.454 20.922-1.713 28.115 1.42 41.419 18.042 10.183 12.722 13.858 21.355 14.536 34.141 1.513 28.53-4.426 40.053-26.13 50.7-18.377 9.016-53.336 11.191-67.647 4.209-2.478-1.209-2.478-1.209-1.102.065 10.264 9.502 21.203 12.812 37.583 11.373zm.238-62.234c3.085-1.066 7.596-5.313 7.044-6.632-.187-.446-3.699-3.23-5.172-4.099-1.048-.618-1.048-.618-.479.316 2.807 4.604-3.629 10.088-9.08 7.735-2.996-1.293-3.86-3.05-2.873-5.847.683-1.936-.594-1.468-2.992 1.096-4.203 4.493 5.946 10.057 13.552 7.43zm-2.523-4.928c1.947-1.187 2.462-4.09.987-5.565-2.706-2.707-8.006.595-6.55 4.081.734 1.755 3.784 2.569 5.563 1.484zm-3.236-1.54c-.913-.972-.921-2.725-.018-3.456 1.698-1.375 4.704.037 4.33 2.034-.373 1.984-2.977 2.842-4.312 1.421zm2.43-.552c1.054-.737.547-2.6-.707-2.6-.355 0-.321.094.157.429.834.584.83 1.568-.008 1.45-.444-.064-.613-.267-.597-.716.032-.862-.496-.616-.755.353-.368 1.376.66 1.96 1.91 1.084z" transform="translate(735.679 -262.5) scale(.96097)"/>
</svg>
